<?xml version="1.0" encoding="iso-8859-1"?>
<!-- Generator: Adobe Illustrator 19.0.0, SVG Export Plug-In . SVG Version: 6.00 Build 0)  -->
<svg version="1.1" id="Capa_1" xmlns="http://www.w3.org/2000/svg" xmlns:xlink="http://www.w3.org/1999/xlink" x="0px" y="0px"
	 viewBox="0 0 511 511" style="enable-background:new 0 0 511 511;" xml:space="preserve">
<path d="M503.5,440H503V63.5c0-4.142-3.358-7.5-7.5-7.5h-480C11.358,56,8,59.358,8,63.5V440H7.5c-4.142,0-7.5,3.358-7.5,7.5
	s3.358,7.5,7.5,7.5h496c4.142,0,7.5-3.358,7.5-7.5S507.642,440,503.5,440z M248,263v17h-65v-17H248z M328,263v17h-65v-17H328z
	 M343,166.975c0.166,0.011,0.331,0.025,0.5,0.025H408v17h-64.5c-0.169,0-0.334,0.014-0.5,0.025V166.975z M423,167h65v17h-65V167z
	 M423,152v-17h65v17H423z M408,152h-64.5c-0.169,0-0.334,0.014-0.5,0.025v-17.05c0.166,0.011,0.331,0.025,0.5,0.025H408V152z
	 M343,198.975c0.166,0.011,0.331,0.025,0.5,0.025H408v17h-64.5c-0.169,0-0.334,0.014-0.5,0.025V198.975z M423,199h65v17h-65V199z
	 M488,231v17h-65v-17H488z M488,120h-65v-17h65V120z M408,120h-64.5c-0.169,0-0.334,0.014-0.5,0.025v-17.05
	c0.166,0.011,0.331,0.025,0.5,0.025H408V120z M343.5,88c-0.169,0-0.334,0.014-0.5,0.025V71h65v17H343.5z M343,230.975
	c0.166,0.011,0.331,0.025,0.5,0.025H408v17h-65V230.975z M408,263v17h-65v-17H408z M328,344h-65v-17h65V344z M343,327h65v17h-65V327
	z M248,344h-65v-17h65V344z M248,359v17h-65v-17H248z M263,359h65v17h-65V359z M343,359h65v17h-65V359z M408,312h-65v-17h65V312z
	 M328,312h-65v-17h65V312z M248,312h-65v-17h65V312z M183,391h65v17h-65V391z M263,391h65v17h-65V391z M343,391h65v17h-65V391z
	 M183,423h65v17h-65V423z M263,423h65v17h-65V423z M343,423h65v17h-65V423z M423,263h65v177h-65V263z M488,88h-65V71h65V88z M328,71
	v177H23V71H328z M23,263h145v177H23V263z"/>
<g>
</g>
<g>
</g>
<g>
</g>
<g>
</g>
<g>
</g>
<g>
</g>
<g>
</g>
<g>
</g>
<g>
</g>
<g>
</g>
<g>
</g>
<g>
</g>
<g>
</g>
<g>
</g>
<g>
</g>
</svg>
