<?xml version="1.0" encoding="iso-8859-1"?>
<!-- Generator: Adobe Illustrator 19.0.0, SVG Export Plug-In . SVG Version: 6.00 Build 0)  -->
<svg version="1.1" id="Capa_1" xmlns="http://www.w3.org/2000/svg" xmlns:xlink="http://www.w3.org/1999/xlink" x="0px" y="0px"
	 viewBox="0 0 511.002 511.002" style="enable-background:new 0 0 511.002 511.002;" xml:space="preserve">
<path d="M503.502,319c4.142,0,7.5-3.358,7.5-7.5s-3.358-7.5-7.5-7.5h-8.5v-80.5c0-0.169-0.014-0.334-0.025-0.5h8.525
	c4.142,0,7.5-3.358,7.5-7.5s-3.358-7.5-7.5-7.5h-152.5v-16.5c0-4.142-3.358-7.5-7.5-7.5h-128.5v-40.5c0-4.142-3.358-7.5-7.5-7.5h-24
	c-4.142,0-7.5,3.358-7.5,7.5V168h-24.5c-4.142,0-7.5,3.358-7.5,7.5v8.5h-16.5c-4.142,0-7.5,3.358-7.5,7.5V216H7.502
	c-4.142,0-7.5,3.358-7.5,7.5v24c0,4.142,3.358,7.5,7.5,7.5h56.5v52.808l-23.32-3.715c-1.113-0.177-2.254-0.101-3.335,0.223l-32,9.6
	c-3.967,1.19-6.219,5.372-5.028,9.339c1.19,3.967,5.369,6.219,9.339,5.028l30.358-9.107l99.206,15.802
	c0.193,0.031,0.387,0.054,0.582,0.069c2.697,0.216,4.541,2.159,5.407,3.311c0.047,0.073,0.095,0.145,0.145,0.216
	c2.189,3.049,3.004,7.242,2.162,11.281l-3.357,16.114c-0.46,2.21,0.099,4.51,1.523,6.261c1.424,1.752,3.562,2.769,5.819,2.769
	h271.984c0.003,0,0.006,0.001,0.01,0.001c0.004,0,0.008-0.001,0.012-0.001h79.994c4.142,0,7.5-3.358,7.5-7.5s-3.358-7.5-7.5-7.5
	h-32.5v-41H503.502z M360.002,360h-41v-41h22.136l18.864,13.205V360z M375.002,342.706L399.709,360h-24.707V342.706z M248.002,319
	v41h-41v-41H248.002z M263.002,319h41v41h-41V319z M151.002,304v-9h257v9H151.002z M159.002,223h17v33h-0.5
	c-4.142,0-7.5,3.358-7.5,7.5s3.358,7.5,7.5,7.5h0.5v9h-17V223z M191.002,151h9v57h-9V151z M352.002,223v9h-144.5
	c-4.142,0-7.5,3.358-7.5,7.5V256h-9v-33H352.002z M191.002,280v-9h16.5h144.5v9H191.002z M215.002,256v-9h265v9H215.002z
	 M480.002,223.5v8.5h-113v-9h113.025C480.016,223.167,480.002,223.332,480.002,223.5z M336.002,199v9h-121v-9H336.002z M159.002,183
	h17v25h-17V183z M135.002,199h9v17h-9V199z M15.002,231h129v9h-129V231z M79.002,310.198V255h65v25h-0.5c-4.142,0-7.5,3.358-7.5,7.5
	v24c0,4.142,3.358,7.5,7.5,7.5h0.5v1.559c-0.879-0.199-1.772-0.349-2.68-0.435L79.002,310.198z M159.002,332.092V319h33v41h-31.276
	l1.476-7.084C163.695,345.745,162.495,338.185,159.002,332.092z M425.866,360l-50.864-35.605V319h40.5c4.142,0,7.5-3.358,7.5-7.5
	v-24c0-4.142-3.358-7.5-7.5-7.5h-48.5v-9h113v33h-16.5c-4.142,0-7.5,3.358-7.5,7.5V360H425.866z"/>
<g>
</g>
<g>
</g>
<g>
</g>
<g>
</g>
<g>
</g>
<g>
</g>
<g>
</g>
<g>
</g>
<g>
</g>
<g>
</g>
<g>
</g>
<g>
</g>
<g>
</g>
<g>
</g>
<g>
</g>
</svg>
