<?xml version="1.0" encoding="iso-8859-1"?>
<!-- Generator: Adobe Illustrator 19.0.0, SVG Export Plug-In . SVG Version: 6.00 Build 0)  -->
<svg version="1.1" id="Capa_1" xmlns="http://www.w3.org/2000/svg" xmlns:xlink="http://www.w3.org/1999/xlink" x="0px" y="0px"
	 viewBox="0 0 495.001 495.001" style="enable-background:new 0 0 495.001 495.001;" xml:space="preserve">
<path d="M487.501,344.381h-16.5V159.24c2.285-0.003,4.252,0.048,5.835,0.09c1.077,0.029,1.971,0.051,2.665,0.051
	c4.142,0,7.5-3.358,7.5-7.5s-3.358-7.5-7.5-7.5c-0.589,0-1.349-0.021-2.265-0.046c-3.065-0.082-7.54-0.195-13.051,0.08
	c-0.225-0.02-0.453-0.034-0.683-0.034c-0.54,0-1.066,0.06-1.574,0.168c-7.177,0.482-15.883,1.654-25.482,4.353
	c-21.787,6.127-40.717,18.064-56.331,35.478h-13.112v-8.5c0-4.142-3.358-7.5-7.5-7.5s-7.5,3.358-7.5,7.5v8.5h-14.405
	c-62.039-37.856-132.195-59.355-208.571-63.887c-40.124-2.38-80.213,0.098-119.159,7.365c-1.331,0.249-2.707,0.505-3.112,0.559
	c-4.091,0.408-7.096,4.039-6.723,8.142c0.375,4.125,4.024,7.163,8.148,6.79c0.86-0.078,1.981-0.287,4.438-0.746
	c19.544-3.647,39.389-6.038,59.383-7.187v208.963h-16.5c-4.142,0-7.5,3.358-7.5,7.5s3.358,7.5,7.5,7.5h272.5v8.5
	c0,4.142,3.358,7.5,7.5,7.5h48c4.142,0,7.5-3.358,7.5-7.5v-8.5h96.5c4.142,0,7.5-3.358,7.5-7.5S491.643,344.381,487.501,344.381z
	 M456.001,160.165v48.216h-65v-13.69C412.841,170.162,437.841,162.465,456.001,160.165z M128.136,135.469
	c73.166,4.341,140.381,24.745,199.864,60.637v12.276h-241v-73.587C100.677,134.438,114.404,134.654,128.136,135.469z
	 M87.001,344.381v-121h241v121H87.001z M343.001,199.381h9v161h-9V199.381z M376.001,360.381h-9v-161h9V360.381z M391.001,223.381
	h65v121h-65V223.381z"/>
<g>
</g>
<g>
</g>
<g>
</g>
<g>
</g>
<g>
</g>
<g>
</g>
<g>
</g>
<g>
</g>
<g>
</g>
<g>
</g>
<g>
</g>
<g>
</g>
<g>
</g>
<g>
</g>
<g>
</g>
</svg>
