<?xml version="1.0" encoding="iso-8859-1"?>
<!-- Generator: Adobe Illustrator 19.0.0, SVG Export Plug-In . SVG Version: 6.00 Build 0)  -->
<svg version="1.1" id="Capa_1" xmlns="http://www.w3.org/2000/svg" xmlns:xlink="http://www.w3.org/1999/xlink" x="0px" y="0px"
	 viewBox="0 0 511 511" style="enable-background:new 0 0 511 511;" xml:space="preserve">
<path d="M503.5,300h-16.525c0.011-0.166,0.025-0.331,0.025-0.5V291h16.5c4.142,0,7.5-3.358,7.5-7.5s-3.358-7.5-7.5-7.5H423v-73h0.5
	c4.142,0,7.5-3.358,7.5-7.5v-24c0-4.142-3.358-7.5-7.5-7.5h-336c-4.142,0-7.5,3.358-7.5,7.5v24c0,4.142,3.358,7.5,7.5,7.5H88v73H7.5
	c-4.142,0-7.5,3.358-7.5,7.5s3.358,7.5,7.5,7.5H8v41H7.5c-4.142,0-7.5,3.358-7.5,7.5s3.358,7.5,7.5,7.5h48
	c4.142,0,7.5-3.358,7.5-7.5V315h440.5c4.142,0,7.5-3.358,7.5-7.5S507.642,300,503.5,300z M472,291v8.5
	c0,0.169,0.014,0.334,0.025,0.5H423v-9H472z M168,203v73h-9v-73H168z M192,203v73h-9v-73H192z M216,203v73h-9v-73H216z M240,203v73
	h-9v-73H240z M264,203v73h-9v-73H264z M288,203v73h-9v-73H288z M312,203v73h-9v-73H312z M336,203v73h-9v-73H336z M408,291v9H103v-9
	H408z M408,276h-57v-73h57V276z M95,179h321v9H95V179z M103,203h41v73h-41V203z M55.5,300c-4.142,0-7.5,3.358-7.5,7.5V332H23v-41h65
	v9H55.5z"/>
<g>
</g>
<g>
</g>
<g>
</g>
<g>
</g>
<g>
</g>
<g>
</g>
<g>
</g>
<g>
</g>
<g>
</g>
<g>
</g>
<g>
</g>
<g>
</g>
<g>
</g>
<g>
</g>
<g>
</g>
</svg>
