<?xml version="1.0" encoding="iso-8859-1"?>
<!-- Generator: Adobe Illustrator 19.0.0, SVG Export Plug-In . SVG Version: 6.00 Build 0)  -->
<svg version="1.1" id="Capa_1" xmlns="http://www.w3.org/2000/svg" xmlns:xlink="http://www.w3.org/1999/xlink" x="0px" y="0px"
	 viewBox="0 0 511 511" style="enable-background:new 0 0 511 511;" xml:space="preserve">
<path d="M503.5,344H487V159.5c0-4.142-3.358-7.5-7.5-7.5h-448c-4.142,0-7.5,3.358-7.5,7.5V344H7.5c-4.142,0-7.5,3.358-7.5,7.5
	s3.358,7.5,7.5,7.5h496c4.142,0,7.5-3.358,7.5-7.5S507.642,344,503.5,344z M39,167h433v177H279v-48.5c0-4.142-3.358-7.5-7.5-7.5h-32
	c-4.142,0-7.5,3.358-7.5,7.5V344H39V167z M264,344h-17v-41h17V344z"/>
<g>
</g>
<g>
</g>
<g>
</g>
<g>
</g>
<g>
</g>
<g>
</g>
<g>
</g>
<g>
</g>
<g>
</g>
<g>
</g>
<g>
</g>
<g>
</g>
<g>
</g>
<g>
</g>
<g>
</g>
</svg>
