<?xml version="1.0" encoding="iso-8859-1"?>
<!-- Generator: Adobe Illustrator 19.0.0, SVG Export Plug-In . SVG Version: 6.00 Build 0)  -->
<svg version="1.1" id="Capa_1" xmlns="http://www.w3.org/2000/svg" xmlns:xlink="http://www.w3.org/1999/xlink" x="0px" y="0px"
	 viewBox="0 0 511.001 511.001" style="enable-background:new 0 0 511.001 511.001;" xml:space="preserve">
<path d="M503.5,324H447v-33h56.5c3.8,0,7-2.842,7.448-6.616s-1.998-7.286-5.692-8.175l-432-104
	c-0.032-0.008-0.064-0.011-0.095-0.018c-0.146-0.033-0.293-0.059-0.442-0.083c-0.11-0.018-0.22-0.037-0.33-0.051
	c-0.118-0.014-0.238-0.022-0.358-0.03c-0.143-0.01-0.285-0.02-0.427-0.022c-0.035,0-0.068-0.005-0.103-0.005
	c-0.065,0-0.128,0.008-0.193,0.01c-0.155,0.004-0.31,0.01-0.463,0.023c-0.102,0.009-0.202,0.022-0.302,0.035
	c-0.141,0.018-0.282,0.038-0.422,0.064c-0.113,0.021-0.223,0.046-0.334,0.072c-0.122,0.029-0.244,0.059-0.364,0.094
	c-0.122,0.035-0.242,0.075-0.361,0.116c-0.106,0.037-0.212,0.074-0.317,0.116c-0.123,0.049-0.244,0.101-0.364,0.156
	c-0.099,0.046-0.198,0.092-0.295,0.142c-0.116,0.059-0.229,0.122-0.341,0.187c-0.099,0.057-0.197,0.116-0.293,0.178
	c-0.101,0.065-0.2,0.133-0.298,0.203c-0.102,0.073-0.203,0.147-0.301,0.225c-0.085,0.067-0.168,0.136-0.25,0.207
	c-0.104,0.09-0.205,0.181-0.304,0.277c-0.071,0.068-0.14,0.138-0.208,0.209c-0.1,0.104-0.198,0.211-0.292,0.321
	c-0.062,0.073-0.121,0.146-0.181,0.221c-0.089,0.113-0.176,0.228-0.26,0.347c-0.059,0.083-0.114,0.169-0.169,0.255
	c-0.073,0.113-0.143,0.228-0.21,0.346c-0.059,0.104-0.114,0.209-0.167,0.316c-0.053,0.105-0.105,0.211-0.154,0.319
	c-0.058,0.128-0.109,0.26-0.16,0.392c-0.036,0.094-0.072,0.188-0.104,0.283c-0.05,0.149-0.093,0.301-0.134,0.455
	c-0.016,0.06-0.037,0.116-0.052,0.177c-0.008,0.032-0.011,0.064-0.018,0.096c-0.032,0.144-0.058,0.29-0.082,0.437
	c-0.019,0.113-0.038,0.225-0.052,0.337c-0.014,0.115-0.021,0.232-0.03,0.349c-0.011,0.146-0.02,0.291-0.022,0.436
	c0,0.034-0.005,0.066-0.005,0.1v74.813l-57.246,5.725c-0.002,0-0.004,0-0.005,0.001c-0.764,0.076-1.494,0.266-2.173,0.554
	c-0.156,0.066-0.306,0.144-0.456,0.22c-0.065,0.033-0.133,0.061-0.197,0.095c-0.171,0.093-0.335,0.197-0.497,0.302
	c-0.04,0.026-0.082,0.048-0.121,0.074c-0.154,0.104-0.301,0.219-0.446,0.333c-0.043,0.034-0.09,0.065-0.133,0.1
	c-0.124,0.103-0.24,0.214-0.357,0.324c-0.059,0.055-0.121,0.106-0.178,0.163c-0.09,0.091-0.172,0.189-0.258,0.284
	c-0.076,0.084-0.156,0.166-0.228,0.253c-0.062,0.075-0.115,0.155-0.174,0.232c-0.087,0.115-0.177,0.228-0.258,0.348
	c-0.041,0.061-0.075,0.126-0.115,0.188c-0.089,0.142-0.18,0.283-0.26,0.431c-0.032,0.059-0.057,0.122-0.088,0.182
	c-0.078,0.155-0.157,0.309-0.225,0.47c-0.046,0.11-0.082,0.225-0.123,0.337c-0.042,0.115-0.089,0.227-0.125,0.344
	C0.116,265.981,0,266.728,0,267.497c0,0.001,0,0.002,0,0.003c0,0.1,0.011,0.197,0.015,0.295c0.006,0.15,0.007,0.299,0.022,0.451
	c0,0.002,0.001,0.004,0.001,0.006c0.011,0.115,0.034,0.226,0.05,0.339c0.019,0.129,0.034,0.26,0.059,0.387
	c0.023,0.115,0.055,0.226,0.083,0.338c0.031,0.124,0.058,0.248,0.095,0.369c0.031,0.1,0.069,0.197,0.103,0.295
	c0.045,0.129,0.089,0.26,0.141,0.385c0.037,0.089,0.079,0.174,0.119,0.26c0.06,0.13,0.119,0.261,0.186,0.387
	c0.043,0.081,0.091,0.159,0.137,0.239c0.073,0.125,0.146,0.25,0.225,0.371c0.051,0.077,0.105,0.151,0.159,0.225
	c0.083,0.116,0.166,0.23,0.255,0.341c0.06,0.075,0.124,0.147,0.187,0.22c0.089,0.102,0.179,0.203,0.273,0.301
	c0.071,0.073,0.144,0.144,0.218,0.214c0.093,0.089,0.188,0.176,0.286,0.26c0.082,0.07,0.165,0.138,0.25,0.205
	c0.097,0.076,0.195,0.149,0.295,0.221c0.092,0.065,0.184,0.129,0.279,0.19c0.101,0.065,0.203,0.126,0.307,0.187
	c0.099,0.057,0.198,0.114,0.3,0.167c0.108,0.056,0.217,0.107,0.328,0.158c0.102,0.047,0.203,0.094,0.308,0.137
	c0.12,0.049,0.243,0.092,0.367,0.134c0.099,0.034,0.196,0.07,0.297,0.101c0.142,0.043,0.288,0.077,0.433,0.111
	c0.086,0.02,0.17,0.044,0.257,0.061c0.183,0.037,0.37,0.062,0.557,0.085c0.053,0.007,0.105,0.017,0.159,0.023
	c0.245,0.024,0.492,0.038,0.742,0.038c0.003,0,0.007,0,0.01,0H8v49H7.5c-4.142,0-7.5,3.358-7.5,7.5s3.358,7.5,7.5,7.5h496
	c4.142,0,7.5-3.358,7.5-7.5S507.642,324,503.5,324z M439.5,276c-4.142,0-7.5,3.358-7.5,7.5V324h-81v-69.499L440.302,276H439.5z
	 M336,251.5v8.5h-9v-11.277l9.03,2.174C336.015,251.097,336,251.297,336,251.5z M312,260h-9.025c0.011-0.166,0.025-0.331,0.025-0.5
	v-16.554l9,2.167V260z M288.025,260h-9.05c0.011-0.166,0.025-0.331,0.025-0.5v-22.332l9,2.167V259.5
	C288,259.669,288.014,259.834,288.025,260z M264.025,260H255v-16.466c0-0.009,0-0.018,0-0.026V243.5v-12.11l9.248,2.226
	c-0.156,0.603-0.248,1.232-0.248,1.884v24C264,259.669,264.014,259.834,264.025,260z M240,251.788V260h-82.125L240,251.788z
	 M240,236.713l-9,0.9v-12l9,2.167V236.713z M216,239.113l-81,8.1v-44.711l81,19.5V239.113z M120,275v49H63v-49H120z M135,275h105v49
	H135V275z M255,275h57v49h-57V275z M327,275h9v49h-9V275z M79,189.02l41,9.871v49.822l-41,4.1V189.02z M23,275h25v49H23V275z"/>
<g>
</g>
<g>
</g>
<g>
</g>
<g>
</g>
<g>
</g>
<g>
</g>
<g>
</g>
<g>
</g>
<g>
</g>
<g>
</g>
<g>
</g>
<g>
</g>
<g>
</g>
<g>
</g>
<g>
</g>
</svg>
