<?xml version="1.0" encoding="iso-8859-1"?>
<!-- Generator: Adobe Illustrator 19.0.0, SVG Export Plug-In . SVG Version: 6.00 Build 0)  -->
<svg version="1.1" id="Capa_1" xmlns="http://www.w3.org/2000/svg" xmlns:xlink="http://www.w3.org/1999/xlink" x="0px" y="0px"
	 viewBox="0 0 511 511" style="enable-background:new 0 0 511 511;" xml:space="preserve">
<g>
	<path d="M39.5,240c-1.97,0-3.91,0.8-5.3,2.2c-1.4,1.39-2.2,3.33-2.2,5.3s0.8,3.91,2.2,5.3c1.39,1.4,3.33,2.2,5.3,2.2
		c1.97,0,3.91-0.8,5.3-2.2c1.4-1.39,2.2-3.32,2.2-5.3c0-1.97-0.8-3.91-2.2-5.3C43.41,240.8,41.47,240,39.5,240z"/>
	<path d="M87.5,240c-1.97,0-3.91,0.8-5.3,2.2c-1.4,1.39-2.2,3.33-2.2,5.3s0.8,3.91,2.2,5.3c1.39,1.4,3.33,2.2,5.3,2.2
		c1.97,0,3.91-0.8,5.3-2.2c1.4-1.39,2.2-3.33,2.2-5.3s-0.8-3.91-2.2-5.3C91.41,240.8,89.47,240,87.5,240z"/>
	<path d="M127.5,240c-1.97,0-3.91,0.8-5.3,2.2c-1.4,1.39-2.2,3.32-2.2,5.3c0,1.97,0.8,3.91,2.2,5.3c1.39,1.4,3.33,2.2,5.3,2.2
		c1.98,0,3.91-0.8,5.3-2.2c1.4-1.39,2.2-3.33,2.2-5.3s-0.8-3.91-2.2-5.3C131.41,240.8,129.48,240,127.5,240z"/>
	<path d="M151.5,240c-1.97,0-3.91,0.8-5.3,2.2c-1.4,1.39-2.2,3.33-2.2,5.3s0.8,3.91,2.2,5.3c1.39,1.4,3.33,2.2,5.3,2.2
		c1.97,0,3.91-0.8,5.3-2.2c1.4-1.39,2.2-3.33,2.2-5.3s-0.8-3.91-2.2-5.3C155.41,240.8,153.48,240,151.5,240z"/>
	<path d="M327.5,240c-1.97,0-3.91,0.8-5.3,2.2c-1.4,1.39-2.2,3.33-2.2,5.3s0.8,3.91,2.2,5.3c1.39,1.4,3.33,2.2,5.3,2.2
		c1.97,0,3.91-0.8,5.3-2.2c1.4-1.39,2.2-3.33,2.2-5.3s-0.8-3.91-2.2-5.3C331.41,240.8,329.47,240,327.5,240z"/>
	<path d="M287.5,264c-1.97,0-3.91,0.8-5.3,2.2c-1.4,1.39-2.2,3.33-2.2,5.3s0.8,3.91,2.2,5.3c1.39,1.4,3.33,2.2,5.3,2.2
		c1.98,0,3.91-0.8,5.3-2.2c1.4-1.39,2.2-3.33,2.2-5.3s-0.8-3.91-2.2-5.3C291.41,264.8,289.47,264,287.5,264z"/>
	<path d="M263.5,264c-1.97,0-3.91,0.8-5.3,2.2c-1.4,1.39-2.2,3.33-2.2,5.3c0,1.98,0.8,3.91,2.2,5.3c1.39,1.4,3.33,2.2,5.3,2.2
		c1.98,0,3.91-0.8,5.3-2.2c1.4-1.39,2.2-3.33,2.2-5.3s-0.8-3.91-2.2-5.3C267.41,264.8,265.48,264,263.5,264z"/>
	<path d="M231.5,264c-1.97,0-3.91,0.8-5.3,2.2c-1.4,1.39-2.2,3.33-2.2,5.3s0.8,3.91,2.2,5.3c1.39,1.4,3.33,2.2,5.3,2.2
		c1.97,0,3.91-0.8,5.3-2.2c1.4-1.39,2.2-3.33,2.2-5.3s-0.8-3.91-2.2-5.3C235.41,264.8,233.47,264,231.5,264z"/>
	<path d="M359.5,264c-1.98,0-3.91,0.8-5.3,2.2c-1.4,1.39-2.2,3.32-2.2,5.3s0.8,3.91,2.2,5.3c1.39,1.4,3.32,2.2,5.3,2.2
		c1.97,0,3.91-0.8,5.3-2.2c1.4-1.39,2.2-3.33,2.2-5.3s-0.8-3.91-2.2-5.3C363.41,264.8,361.47,264,359.5,264z"/>
	<path d="M383.5,264c-1.97,0-3.91,0.8-5.3,2.2c-1.4,1.39-2.2,3.33-2.2,5.3s0.8,3.91,2.2,5.3c1.39,1.4,3.33,2.2,5.3,2.2
		c1.97,0,3.91-0.8,5.3-2.2c1.4-1.39,2.2-3.33,2.2-5.3s-0.8-3.91-2.2-5.3C387.41,264.8,385.47,264,383.5,264z"/>
	<path d="M199.5,240h-24c-4.142,0-7.5,3.358-7.5,7.5s3.358,7.5,7.5,7.5h24c4.142,0,7.5-3.358,7.5-7.5S203.642,240,199.5,240z"/>
	<path d="M287.5,240h-8c-4.142,0-7.5,3.358-7.5,7.5s3.358,7.5,7.5,7.5h8c4.142,0,7.5-3.358,7.5-7.5S291.642,240,287.5,240z"/>
	<path d="M503.5,304H503v-24.5c0-4.142-3.358-7.5-7.5-7.5h-40.408l-124.546-55.354c-0.959-0.426-1.997-0.646-3.046-0.646H287
		v-16.364c0-0.005,0-0.009,0-0.014V199.5c0-0.084-0.01-0.167-0.013-0.25c-0.005-0.147-0.008-0.294-0.022-0.443
		c-0.014-0.149-0.038-0.294-0.06-0.441c-0.013-0.083-0.018-0.165-0.034-0.248c-0.003-0.016-0.008-0.032-0.012-0.048
		c-0.033-0.17-0.076-0.335-0.12-0.5c-0.021-0.078-0.037-0.157-0.06-0.234c-0.046-0.151-0.101-0.297-0.156-0.444
		c-0.033-0.089-0.062-0.18-0.098-0.267c-0.048-0.115-0.104-0.225-0.157-0.337c-0.054-0.113-0.104-0.229-0.163-0.338
		c-0.041-0.075-0.088-0.147-0.131-0.221c-0.081-0.138-0.16-0.278-0.249-0.41c-0.03-0.044-0.064-0.085-0.095-0.129
		c-0.109-0.155-0.219-0.308-0.339-0.453c-0.026-0.032-0.056-0.061-0.083-0.092c-0.129-0.151-0.26-0.299-0.399-0.439
		c-0.042-0.042-0.089-0.08-0.132-0.121c-0.129-0.123-0.258-0.245-0.394-0.358c-0.079-0.066-0.164-0.124-0.246-0.186
		c-0.107-0.081-0.212-0.166-0.323-0.241c-0.115-0.079-0.238-0.148-0.358-0.22c-0.084-0.051-0.166-0.106-0.252-0.153
		c-0.132-0.073-0.27-0.135-0.406-0.2c-0.082-0.039-0.161-0.082-0.243-0.117c-0.126-0.054-0.257-0.099-0.387-0.146
		c-0.1-0.037-0.199-0.078-0.301-0.11c-0.109-0.035-0.221-0.06-0.332-0.09c-0.129-0.034-0.256-0.072-0.387-0.1
		c-0.091-0.019-0.185-0.03-0.277-0.046c-0.155-0.027-0.309-0.054-0.466-0.071c-0.084-0.009-0.17-0.011-0.255-0.017
		c-0.166-0.012-0.332-0.024-0.5-0.025c-0.018,0-0.035-0.003-0.052-0.003c-0.089,0-0.175,0.01-0.263,0.013
		c-0.142,0.005-0.285,0.008-0.428,0.022c-0.15,0.014-0.297,0.038-0.445,0.06c-0.082,0.012-0.164,0.018-0.246,0.033l-0.123,0.023
		c-0.003,0.001-0.007,0.001-0.01,0.002L150.802,216H15.5c-4.142,0-7.5,3.358-7.5,7.5V264H7.5c-4.142,0-7.5,3.358-7.5,7.5
		s3.358,7.5,7.5,7.5h189.473c0.285,0.338,0.588,0.702,0.864,1.034C203.542,286.906,216.902,303,247.5,303
		c55.052,0,85.058,7.923,102.986,12.657c7.624,2.013,12.66,3.343,17.014,3.343h136c4.142,0,7.5-3.358,7.5-7.5S507.642,304,503.5,304
		z M272,208.537V216h-39.802L272,208.537z M354.315,301.154c-5.092-1.345-11.479-3.028-19.377-4.737
		c0.037-0.301,0.062-0.606,0.062-0.917v-24c0-4.142-3.358-7.5-7.5-7.5s-7.5,3.358-7.5,7.5v22.046
		c-17.97-3.033-41.62-5.546-72.5-5.546c-23.555,0-33.031-11.415-38.123-17.547c-2.755-3.318-5.357-6.453-9.877-6.453H23v-33h128.458
		c0.011,0,0.022,0.001,0.033,0.001c0.01,0,0.021-0.001,0.031-0.001h174.385l124.546,55.354c0.959,0.426,1.997,0.646,3.046,0.646H488
		v17H367.5C365.093,304,360.337,302.744,354.315,301.154z"/>
</g>
<g>
</g>
<g>
</g>
<g>
</g>
<g>
</g>
<g>
</g>
<g>
</g>
<g>
</g>
<g>
</g>
<g>
</g>
<g>
</g>
<g>
</g>
<g>
</g>
<g>
</g>
<g>
</g>
<g>
</g>
</svg>
