<?xml version="1.0" encoding="iso-8859-1"?>
<!-- Generator: Adobe Illustrator 19.0.0, SVG Export Plug-In . SVG Version: 6.00 Build 0)  -->
<svg version="1.1" id="Capa_1" xmlns="http://www.w3.org/2000/svg" xmlns:xlink="http://www.w3.org/1999/xlink" x="0px" y="0px"
	 viewBox="0 0 511 511" style="enable-background:new 0 0 511 511;" xml:space="preserve">
<path d="M503.5,243c4.142,0,7.5-3.358,7.5-7.5v-24c0-4.142-3.358-7.5-7.5-7.5H7.5c-4.142,0-7.5,3.358-7.5,7.5v24
	c0,4.142,3.358,7.5,7.5,7.5H8v49H7.5c-4.142,0-7.5,3.358-7.5,7.5s3.358,7.5,7.5,7.5h208c4.142,0,7.5-3.358,7.5-7.5
	s-3.358-7.5-7.5-7.5H215v-1h81v1h-0.5c-4.142,0-7.5,3.358-7.5,7.5s3.358,7.5,7.5,7.5h208c4.142,0,7.5-3.358,7.5-7.5
	s-3.358-7.5-7.5-7.5H503v-49H503.5z M15,219h481v9H15V219z M448,243v49h-49v-49H448z M144,243v49h-41v-49H144z M23,243h65v49H23V243
	z M159,292v-49h41v49H159z M215,276v-33h81v33H215z M311,243h73v49h-73V243z M488,292h-25v-49h25V292z"/>
<g>
</g>
<g>
</g>
<g>
</g>
<g>
</g>
<g>
</g>
<g>
</g>
<g>
</g>
<g>
</g>
<g>
</g>
<g>
</g>
<g>
</g>
<g>
</g>
<g>
</g>
<g>
</g>
<g>
</g>
</svg>
