<?xml version="1.0" encoding="iso-8859-1"?>
<!-- Generator: Adobe Illustrator 19.0.0, SVG Export Plug-In . SVG Version: 6.00 Build 0)  -->
<svg version="1.1" id="Capa_1" xmlns="http://www.w3.org/2000/svg" xmlns:xlink="http://www.w3.org/1999/xlink" x="0px" y="0px"
	 viewBox="0 0 471 471" style="enable-background:new 0 0 471 471;" xml:space="preserve">
<g>
	<path d="M443.5,456h-0.525c0.011-0.166,0.025-0.331,0.025-0.5V15h0.5c4.142,0,7.5-3.358,7.5-7.5S447.642,0,443.5,0h-416
		C23.358,0,20,3.358,20,7.5s3.358,7.5,7.5,7.5H28v440.5c0,0.169,0.014,0.334,0.025,0.5H27.5c-4.142,0-7.5,3.358-7.5,7.5
		s3.358,7.5,7.5,7.5h416c4.142,0,7.5-3.358,7.5-7.5S447.642,456,443.5,456z M43,455.5V278.976c0.167,0.011,0.333,0.024,0.5,0.024
		c1.919,0,3.839-0.732,5.303-2.197l8-8C58.21,267.396,59,265.489,59,263.5v-24c0-1.989-0.79-3.896-2.197-5.303l-8-8
		c-1.592-1.592-3.721-2.312-5.803-2.173v-73.048c0.167,0.011,0.333,0.024,0.5,0.024c1.919,0,3.839-0.732,5.303-2.197l8-8
		C58.21,139.396,59,137.489,59,135.5v-24c0-1.989-0.79-3.896-2.197-5.303l-8-8c-1.592-1.592-3.721-2.312-5.803-2.173V15h385v81.024
		c-2.083-0.139-4.211,0.581-5.803,2.173l-8,8c-1.407,1.407-2.197,3.314-2.197,5.303v24c0,1.989,0.79,3.896,2.197,5.303l8,8
		c1.464,1.464,3.384,2.197,5.303,2.197c0.167,0,0.333-0.013,0.5-0.024v73.048c-2.083-0.139-4.211,0.581-5.803,2.173l-8,8
		c-1.407,1.407-2.197,3.314-2.197,5.303v24c0,1.989,0.79,3.896,2.197,5.303l8,8c1.464,1.464,3.384,2.197,5.303,2.197
		c0.167,0,0.333-0.013,0.5-0.024V455.5c0,0.169,0.014,0.334,0.025,0.5H42.975C42.986,455.834,43,455.669,43,455.5z"/>
	<path d="M208.803,42.197c-2.929-2.929-7.678-2.929-10.606,0l-8,8C188.79,51.604,188,53.511,188,55.5v24
		c0,1.989,0.79,3.896,2.197,5.303l8,8C199.661,94.268,201.581,95,203.5,95s3.839-0.732,5.303-2.197l8-8
		C218.21,83.396,219,81.489,219,79.5v-24c0-1.989-0.79-3.896-2.197-5.303L208.803,42.197z"/>
	<path d="M272.803,42.197c-2.929-2.929-7.678-2.929-10.606,0l-8,8C252.79,51.604,252,53.511,252,55.5v24
		c0,1.989,0.79,3.896,2.197,5.303l8,8C263.661,94.268,265.581,95,267.5,95s3.839-0.732,5.303-2.197l8-8
		C282.21,83.396,283,81.489,283,79.5v-24c0-1.989-0.79-3.896-2.197-5.303L272.803,42.197z"/>
	<path d="M336.803,42.197c-2.929-2.929-7.678-2.929-10.606,0l-8,8C316.79,51.604,316,53.511,316,55.5v24
		c0,1.989,0.79,3.896,2.197,5.303l8,8C327.661,94.268,329.581,95,331.5,95s3.839-0.732,5.303-2.197l8-8
		C346.21,83.396,347,81.489,347,79.5v-24c0-1.989-0.79-3.896-2.197-5.303L336.803,42.197z"/>
	<path d="M144.803,42.197c-2.929-2.929-7.678-2.929-10.606,0l-8,8C124.79,51.604,124,53.511,124,55.5v24
		c0,1.989,0.79,3.896,2.197,5.303l8,8C135.661,94.268,137.581,95,139.5,95s3.839-0.732,5.303-2.197l8-8
		C154.21,83.396,155,81.489,155,79.5v-24c0-1.989-0.79-3.896-2.197-5.303L144.803,42.197z"/>
	<path d="M80.803,42.197c-2.929-2.929-7.678-2.929-10.606,0l-8,8C60.79,51.604,60,53.511,60,55.5v24c0,1.989,0.79,3.896,2.197,5.303
		l8,8C71.661,94.268,73.581,95,75.5,95s3.839-0.732,5.303-2.197l8-8C90.21,83.396,91,81.489,91,79.5v-24
		c0-1.989-0.79-3.896-2.197-5.303L80.803,42.197z"/>
	<path d="M400.803,42.197c-2.929-2.929-7.678-2.929-10.606,0l-8,8C380.79,51.604,380,53.511,380,55.5v24
		c0,1.989,0.79,3.896,2.197,5.303l8,8C391.661,94.268,393.581,95,395.5,95s3.839-0.732,5.303-2.197l8-8
		C410.21,83.396,411,81.489,411,79.5v-24c0-1.989-0.79-3.896-2.197-5.303L400.803,42.197z"/>
	<path d="M208.803,162.197c-2.929-2.929-7.678-2.929-10.606,0l-8,8c-1.407,1.407-2.197,3.314-2.197,5.303v24
		c0,1.989,0.79,3.896,2.197,5.303l8,8c1.464,1.464,3.384,2.197,5.303,2.197s3.839-0.732,5.303-2.197l8-8
		c1.407-1.407,2.197-3.314,2.197-5.303v-24c0-1.989-0.79-3.896-2.197-5.303L208.803,162.197z"/>
	<path d="M272.803,162.197c-2.929-2.929-7.678-2.929-10.606,0l-8,8c-1.407,1.407-2.197,3.314-2.197,5.303v24
		c0,1.989,0.79,3.896,2.197,5.303l8,8c1.464,1.464,3.384,2.197,5.303,2.197s3.839-0.732,5.303-2.197l8-8
		c1.407-1.407,2.197-3.314,2.197-5.303v-24c0-1.989-0.79-3.896-2.197-5.303L272.803,162.197z"/>
	<path d="M336.803,162.197c-2.929-2.929-7.678-2.929-10.606,0l-8,8c-1.407,1.407-2.197,3.314-2.197,5.303v24
		c0,1.989,0.79,3.896,2.197,5.303l8,8c1.464,1.464,3.384,2.197,5.303,2.197s3.839-0.732,5.303-2.197l8-8
		c1.407-1.407,2.197-3.314,2.197-5.303v-24c0-1.989-0.79-3.896-2.197-5.303L336.803,162.197z"/>
	<path d="M144.803,162.197c-2.929-2.929-7.678-2.929-10.606,0l-8,8c-1.407,1.407-2.197,3.314-2.197,5.303v24
		c0,1.989,0.79,3.896,2.197,5.303l8,8c1.464,1.464,3.384,2.197,5.303,2.197s3.839-0.732,5.303-2.197l8-8
		c1.407-1.407,2.197-3.314,2.197-5.303v-24c0-1.989-0.79-3.896-2.197-5.303L144.803,162.197z"/>
	<path d="M80.803,162.197c-2.929-2.929-7.678-2.929-10.606,0l-8,8C60.79,171.604,60,173.511,60,175.5v24
		c0,1.989,0.79,3.896,2.197,5.303l8,8C71.661,214.268,73.581,215,75.5,215s3.839-0.732,5.303-2.197l8-8
		C90.21,203.396,91,201.489,91,199.5v-24c0-1.989-0.79-3.896-2.197-5.303L80.803,162.197z"/>
	<path d="M400.803,162.197c-2.929-2.929-7.678-2.929-10.606,0l-8,8c-1.407,1.407-2.197,3.314-2.197,5.303v24
		c0,1.989,0.79,3.896,2.197,5.303l8,8c1.464,1.464,3.384,2.197,5.303,2.197s3.839-0.732,5.303-2.197l8-8
		c1.407-1.407,2.197-3.314,2.197-5.303v-24c0-1.989-0.79-3.896-2.197-5.303L400.803,162.197z"/>
	<path d="M176.803,98.197c-2.929-2.929-7.678-2.929-10.606,0l-8,8c-1.407,1.407-2.197,3.314-2.197,5.303v24
		c0,1.989,0.79,3.896,2.197,5.303l8,8c1.464,1.464,3.384,2.197,5.303,2.197s3.839-0.732,5.303-2.197l8-8
		c1.407-1.407,2.197-3.314,2.197-5.303v-24c0-1.989-0.79-3.896-2.197-5.303L176.803,98.197z"/>
	<path d="M240.803,98.197c-2.929-2.929-7.678-2.929-10.606,0l-8,8c-1.407,1.407-2.197,3.314-2.197,5.303v24
		c0,1.989,0.79,3.896,2.197,5.303l8,8c1.464,1.464,3.384,2.197,5.303,2.197s3.839-0.732,5.303-2.197l8-8
		c1.407-1.407,2.197-3.314,2.197-5.303v-24c0-1.989-0.79-3.896-2.197-5.303L240.803,98.197z"/>
	<path d="M304.803,98.197c-2.929-2.929-7.678-2.929-10.606,0l-8,8c-1.407,1.407-2.197,3.314-2.197,5.303v24
		c0,1.989,0.79,3.896,2.197,5.303l8,8c1.464,1.464,3.384,2.197,5.303,2.197s3.839-0.732,5.303-2.197l8-8
		c1.407-1.407,2.197-3.314,2.197-5.303v-24c0-1.989-0.79-3.896-2.197-5.303L304.803,98.197z"/>
	<path d="M112.803,98.197c-2.929-2.929-7.678-2.929-10.606,0l-8,8C92.79,107.604,92,109.511,92,111.5v24
		c0,1.989,0.79,3.896,2.197,5.303l8,8c1.464,1.464,3.384,2.197,5.303,2.197s3.839-0.732,5.303-2.197l8-8
		c1.407-1.407,2.197-3.314,2.197-5.303v-24c0-1.989-0.79-3.896-2.197-5.303L112.803,98.197z"/>
	<path d="M368.803,98.197c-2.929-2.929-7.678-2.929-10.606,0l-8,8c-1.407,1.407-2.197,3.314-2.197,5.303v24
		c0,1.989,0.79,3.896,2.197,5.303l8,8c1.464,1.464,3.384,2.197,5.303,2.197s3.839-0.732,5.303-2.197l8-8
		c1.407-1.407,2.197-3.314,2.197-5.303v-24c0-1.989-0.79-3.896-2.197-5.303L368.803,98.197z"/>
	<path d="M176.803,226.197c-2.929-2.929-7.678-2.929-10.606,0l-8,8c-1.407,1.407-2.197,3.314-2.197,5.303v24
		c0,1.989,0.79,3.896,2.197,5.303l8,8c1.464,1.464,3.384,2.197,5.303,2.197s3.839-0.732,5.303-2.197l8-8
		c1.407-1.407,2.197-3.314,2.197-5.303v-24c0-1.989-0.79-3.896-2.197-5.303L176.803,226.197z"/>
	<path d="M240.803,226.197c-2.929-2.929-7.678-2.929-10.606,0l-8,8c-1.407,1.407-2.197,3.314-2.197,5.303v24
		c0,1.989,0.79,3.896,2.197,5.303l8,8c1.464,1.464,3.384,2.197,5.303,2.197s3.839-0.732,5.303-2.197l8-8
		c1.407-1.407,2.197-3.314,2.197-5.303v-24c0-1.989-0.79-3.896-2.197-5.303L240.803,226.197z"/>
	<path d="M304.803,226.197c-2.929-2.929-7.678-2.929-10.606,0l-8,8c-1.407,1.407-2.197,3.314-2.197,5.303v24
		c0,1.989,0.79,3.896,2.197,5.303l8,8c1.464,1.464,3.384,2.197,5.303,2.197s3.839-0.732,5.303-2.197l8-8
		c1.407-1.407,2.197-3.314,2.197-5.303v-24c0-1.989-0.79-3.896-2.197-5.303L304.803,226.197z"/>
	<path d="M112.803,226.197c-2.929-2.929-7.678-2.929-10.606,0l-8,8C92.79,235.604,92,237.511,92,239.5v24
		c0,1.989,0.79,3.896,2.197,5.303l8,8c1.464,1.464,3.384,2.197,5.303,2.197s3.839-0.732,5.303-2.197l8-8
		c1.407-1.407,2.197-3.314,2.197-5.303v-24c0-1.989-0.79-3.896-2.197-5.303L112.803,226.197z"/>
	<path d="M368.803,226.197c-2.929-2.929-7.678-2.929-10.606,0l-8,8c-1.407,1.407-2.197,3.314-2.197,5.303v24
		c0,1.989,0.79,3.896,2.197,5.303l8,8c1.464,1.464,3.384,2.197,5.303,2.197s3.839-0.732,5.303-2.197l8-8
		c1.407-1.407,2.197-3.314,2.197-5.303v-24c0-1.989-0.79-3.896-2.197-5.303L368.803,226.197z"/>
	<path d="M240.803,370.197c-2.929-2.929-7.678-2.929-10.606,0l-8,8c-1.407,1.407-2.197,3.314-2.197,5.303v24
		c0,1.989,0.79,3.896,2.197,5.303l8,8c1.464,1.464,3.384,2.197,5.303,2.197s3.839-0.732,5.303-2.197l8-8
		c1.407-1.407,2.197-3.314,2.197-5.303v-24c0-1.989-0.79-3.896-2.197-5.303L240.803,370.197z"/>
	<path d="M112.803,370.197c-2.929-2.929-7.678-2.929-10.606,0l-8,8C92.79,379.604,92,381.511,92,383.5v24
		c0,1.989,0.79,3.896,2.197,5.303l8,8c1.464,1.464,3.384,2.197,5.303,2.197s3.839-0.732,5.303-2.197l8-8
		c1.407-1.407,2.197-3.314,2.197-5.303v-24c0-1.989-0.79-3.896-2.197-5.303L112.803,370.197z"/>
	<path d="M368.803,370.197c-2.929-2.929-7.678-2.929-10.606,0l-8,8c-1.407,1.407-2.197,3.314-2.197,5.303v24
		c0,1.989,0.79,3.896,2.197,5.303l8,8c1.464,1.464,3.384,2.197,5.303,2.197s3.839-0.732,5.303-2.197l8-8
		c1.407-1.407,2.197-3.314,2.197-5.303v-24c0-1.989-0.79-3.896-2.197-5.303L368.803,370.197z"/>
</g>
<g>
</g>
<g>
</g>
<g>
</g>
<g>
</g>
<g>
</g>
<g>
</g>
<g>
</g>
<g>
</g>
<g>
</g>
<g>
</g>
<g>
</g>
<g>
</g>
<g>
</g>
<g>
</g>
<g>
</g>
</svg>
