<?xml version="1.0" encoding="iso-8859-1"?>
<!-- Generator: Adobe Illustrator 19.0.0, SVG Export Plug-In . SVG Version: 6.00 Build 0)  -->
<svg version="1.1" id="Capa_1" xmlns="http://www.w3.org/2000/svg" xmlns:xlink="http://www.w3.org/1999/xlink" x="0px" y="0px"
	 viewBox="0 0 495 495" style="enable-background:new 0 0 495 495;" xml:space="preserve">
<path d="M487.5,188H423v-32.5c0-8.547-6.953-15.5-15.5-15.5h-112c-4.142,0-7.5,3.358-7.5,7.5v0.5h-33v-0.5
	c0-4.142-3.358-7.5-7.5-7.5H159v-8.5c0-4.142-3.358-7.5-7.5-7.5h-56C82.542,124,72,134.542,72,147.5V188H7.5
	c-4.142,0-7.5,3.358-7.5,7.5v96c0,4.142,3.358,7.5,7.5,7.5H16v64.5c0,4.142,3.358,7.5,7.5,7.5s7.5-3.358,7.5-7.5V299h97v64.5
	c0,4.142,3.358,7.5,7.5,7.5s7.5-3.358,7.5-7.5V363h97v0.5c0,4.142,3.358,7.5,7.5,7.5s7.5-3.358,7.5-7.5V363h97v0.5
	c0,4.142,3.358,7.5,7.5,7.5s7.5-3.358,7.5-7.5V299h97v64.5c0,4.142,3.358,7.5,7.5,7.5s7.5-3.358,7.5-7.5V299h8.5
	c4.142,0,7.5-3.358,7.5-7.5v-96C495,191.358,491.642,188,487.5,188z M431,252v-17h17v17H431z M399,252v-17h17v17H399z M367,252v-17
	h17v17H367z M335,252v-17h17v17H335z M303,252v-17h17v17H303z M271,252v-17h17v17H271z M239,252v-17h17v17H239z M207,252v-17h17v17
	H207z M175,252v-17h17v17H175z M143,252v-17h17v17H143z M111,252v-17h17v17H111z M79,252v-17h17v17H79z M47,252v-17h17v17H47z
	 M15,252v-17h17v17H15z M463,235h17v17h-17V235z M303,155h104.5c0.276,0,0.5,0.225,0.5,0.5V188H303V155z M288,163v25h-33v-25H288z
	 M240,155v33h-81v-33H240z M87,147.5c0-4.687,3.813-8.5,8.5-8.5H144v49H87V147.5z M480,203v17H15v-17H480z M143,299h65v49h-65V299z
	 M223,348v-49h17v49H223z M255,299h17v49h-17V299z M352,348h-65v-49h65V348z M15,284v-17h465v17H15z"/>
<g>
</g>
<g>
</g>
<g>
</g>
<g>
</g>
<g>
</g>
<g>
</g>
<g>
</g>
<g>
</g>
<g>
</g>
<g>
</g>
<g>
</g>
<g>
</g>
<g>
</g>
<g>
</g>
<g>
</g>
</svg>
