<?xml version="1.0" encoding="iso-8859-1"?>
<!-- Generator: Adobe Illustrator 19.0.0, SVG Export Plug-In . SVG Version: 6.00 Build 0)  -->
<svg version="1.1" id="Capa_1" xmlns="http://www.w3.org/2000/svg" xmlns:xlink="http://www.w3.org/1999/xlink" x="0px" y="0px"
	 viewBox="0 0 511 511" style="enable-background:new 0 0 511 511;" xml:space="preserve">
<path d="M503.5,372H503V131.5c0-4.142-3.358-7.5-7.5-7.5h-480c-4.142,0-7.5,3.358-7.5,7.5V372H7.5c-4.142,0-7.5,3.358-7.5,7.5
	s3.358,7.5,7.5,7.5h496c4.142,0,7.5-3.358,7.5-7.5S507.642,372,503.5,372z M407,139h33v17h-33V139z M359,139h33v17h-33V139z
	 M311,139h33v17h-33V139z M263,139h33v17h-33V139z M215,139h33v17h-33V139z M119,156v-17h33v17H119z M71,156v-17h33v17H71z M167,139
	h33v17h-33V139z M23,139h33v17H23V139z M23,251h33v17H23V251z M104,251v17H71v-17H104z M152,251v17h-33v-17H152z M200,251v17h-33
	v-17H200z M119,308v-25h33v25H119z M71,308v-25h33v25H71z M167,283h33v25h-33V283z M23,283h33v25H23V283z M23,372v-49h166.394
	l-49,49H23z M248,372h-86.394l49-49H248V372z M248,308h-33v-57h33V308z M464,372H263v-49h201V372z M263,308v-57h33v57H263z M311,308
	v-57h33v57H311z M359,308v-57h33v57H359z M407,308v-57h33v57H407z M488,372h-9v-49h9V372z M488,308h-33v-57h33V308z M488,236H23v-65
	h465V236z M488,156h-33v-17h33V156z"/>
<g>
</g>
<g>
</g>
<g>
</g>
<g>
</g>
<g>
</g>
<g>
</g>
<g>
</g>
<g>
</g>
<g>
</g>
<g>
</g>
<g>
</g>
<g>
</g>
<g>
</g>
<g>
</g>
<g>
</g>
</svg>
