<?xml version="1.0" encoding="iso-8859-1"?>
<!-- Generator: Adobe Illustrator 19.0.0, SVG Export Plug-In . SVG Version: 6.00 Build 0)  -->
<svg version="1.1" id="Capa_1" xmlns="http://www.w3.org/2000/svg" xmlns:xlink="http://www.w3.org/1999/xlink" x="0px" y="0px"
	 viewBox="0 0 511 511" style="enable-background:new 0 0 511 511;" xml:space="preserve">
<path d="M503.5,268H495v-57h8.5c4.142,0,7.5-3.358,7.5-7.5s-3.358-7.5-7.5-7.5h-416c-4.142,0-7.5,3.358-7.5,7.5s3.358,7.5,7.5,7.5
	H96v57h-8.5c-4.142,0-7.5,3.358-7.5,7.5s3.358,7.5,7.5,7.5H96v9H7.5c-4.142,0-7.5,3.358-7.5,7.5s3.358,7.5,7.5,7.5H16v0.5
	c0,4.142,3.358,7.5,7.5,7.5s7.5-3.358,7.5-7.5V307h193v0.5c0,4.142,3.358,7.5,7.5,7.5s7.5-3.358,7.5-7.5V307h8.5
	c4.142,0,7.5-3.358,7.5-7.5s-3.358-7.5-7.5-7.5H239v-9h113v24.5c0,4.142,3.358,7.5,7.5,7.5s7.5-3.358,7.5-7.5V283h113v24.5
	c0,4.142,3.358,7.5,7.5,7.5s7.5-3.358,7.5-7.5V283h8.5c4.142,0,7.5-3.358,7.5-7.5S507.642,268,503.5,268z M111,211h113v57H111V211z
	 M224,292H111v-9h113V292z M239,211h113v25h-48.5c-4.142,0-7.5,3.358-7.5,7.5V268h-57V211z M311,268v-17h41v17H311z M367,251h81v17
	h-81V251z M463,268v-24.5c0-4.142-3.358-7.5-7.5-7.5H367v-25h113v57H463z"/>
<g>
</g>
<g>
</g>
<g>
</g>
<g>
</g>
<g>
</g>
<g>
</g>
<g>
</g>
<g>
</g>
<g>
</g>
<g>
</g>
<g>
</g>
<g>
</g>
<g>
</g>
<g>
</g>
<g>
</g>
</svg>
