<?xml version="1.0" encoding="iso-8859-1"?>
<!-- Generator: Adobe Illustrator 19.0.0, SVG Export Plug-In . SVG Version: 6.00 Build 0)  -->
<svg version="1.1" id="Capa_1" xmlns="http://www.w3.org/2000/svg" xmlns:xlink="http://www.w3.org/1999/xlink" x="0px" y="0px"
	 viewBox="0 0 511 511" style="enable-background:new 0 0 511 511;" xml:space="preserve">
<path d="M503.5,312H503v-96.5c0-4.142-3.358-7.5-7.5-7.5H399v-16.5c0-4.142-3.358-7.5-7.5-7.5h-112c-4.142,0-7.5,3.358-7.5,7.5V208
	H15.5c-4.142,0-7.5,3.358-7.5,7.5V312H7.5c-4.142,0-7.5,3.358-7.5,7.5s3.358,7.5,7.5,7.5h496c4.142,0,7.5-3.358,7.5-7.5
	S507.642,312,503.5,312z M488,223v89h-89v-89H488z M343,223h41v89h-41V223z M328,312h-41v-89h41V312z M287,199h97v9h-97V199z
	 M272,312h-57v-24.5c0-4.142-3.358-7.5-7.5-7.5H183v-57h89V312z M183,295h17v17h-17V295z M168,312H79v-17h89V312z M23,223h145v57
	H71.5c-4.142,0-7.5,3.358-7.5,7.5V312H23V223z"/>
<g>
</g>
<g>
</g>
<g>
</g>
<g>
</g>
<g>
</g>
<g>
</g>
<g>
</g>
<g>
</g>
<g>
</g>
<g>
</g>
<g>
</g>
<g>
</g>
<g>
</g>
<g>
</g>
<g>
</g>
</svg>
