<?xml version="1.0" encoding="iso-8859-1"?>
<!-- Generator: Adobe Illustrator 19.0.0, SVG Export Plug-In . SVG Version: 6.00 Build 0)  -->
<svg version="1.1" id="Capa_1" xmlns="http://www.w3.org/2000/svg" xmlns:xlink="http://www.w3.org/1999/xlink" x="0px" y="0px"
	 viewBox="0 0 511 511" style="enable-background:new 0 0 511 511;" xml:space="preserve">
<path d="M503.5,92h-408c-4.142,0-7.5,3.358-7.5,7.5s3.358,7.5,7.5,7.5H96v33H15.5c-4.142,0-7.5,3.358-7.5,7.5s3.358,7.5,7.5,7.5H24
	v33H7.5c-4.142,0-7.5,3.358-7.5,7.5v56c0,4.142,3.358,7.5,7.5,7.5H80v152.5c0,4.142,3.358,7.5,7.5,7.5h24c4.142,0,7.5-3.358,7.5-7.5
	V371h105v40.5c0,4.142,3.358,7.5,7.5,7.5h24c4.142,0,7.5-3.358,7.5-7.5V371h209v40.5c0,4.142,3.358,7.5,7.5,7.5h24
	c4.142,0,7.5-3.358,7.5-7.5v-48v-264C511,95.358,507.642,92,503.5,92z M167,356v-33h64.5c4.142,0,7.5-3.358,7.5-7.5V259h17v56.5
	c0,4.142,3.358,7.5,7.5,7.5h216c4.142,0,7.5-3.358,7.5-7.5v-144c0-4.142-3.358-7.5-7.5-7.5h-216c-4.142,0-7.5,3.358-7.5,7.5V204h-17
	v-49h257v201H167z M119,259h105v49H119V259z M303.5,259c4.142,0,7.5-3.358,7.5-7.5v-40c0-4.142-3.358-7.5-7.5-7.5H271v-25h201v129
	H271v-49H303.5z M111,204v-49h113v49H111z M111,107h385v33H111V107z M39,155h57v33H39V155z M15,203h81v8.5
	c0,4.142,3.358,7.5,7.5,7.5h159.952c0.016,0,0.032,0.002,0.048,0.002s0.032-0.002,0.048-0.002H296v25h-32.432
	c-0.023,0-0.045-0.003-0.068-0.003S263.455,244,263.432,244H15V203z M104,259v56.5c0,4.142,3.358,7.5,7.5,7.5H152v33H95v-97H104z
	 M104,404h-9v-33h9V404z M248,404h-9v-33h9V404z M487,404v-33h9v33H487z"/>
<g>
</g>
<g>
</g>
<g>
</g>
<g>
</g>
<g>
</g>
<g>
</g>
<g>
</g>
<g>
</g>
<g>
</g>
<g>
</g>
<g>
</g>
<g>
</g>
<g>
</g>
<g>
</g>
<g>
</g>
</svg>
