<?xml version="1.0" encoding="iso-8859-1"?>
<!-- Generator: Adobe Illustrator 19.0.0, SVG Export Plug-In . SVG Version: 6.00 Build 0)  -->
<svg version="1.1" id="Capa_1" xmlns="http://www.w3.org/2000/svg" xmlns:xlink="http://www.w3.org/1999/xlink" x="0px" y="0px"
	 viewBox="0 0 511 511" style="enable-background:new 0 0 511 511;" xml:space="preserve">
<g>
	<path d="M503.5,364H503v-64.5c0-2.841-1.605-5.438-4.146-6.708L311,198.865V155.5c0-4.142-3.358-7.5-7.5-7.5H263v-8.5
		c0-4.142-3.358-7.5-7.5-7.5h-24c-4.142,0-7.5,3.358-7.5,7.5v8.5h-16.5c-4.142,0-7.5,3.358-7.5,7.5v43.365L12.146,292.792
		C9.605,294.063,8,296.659,8,299.5V364H7.5c-4.142,0-7.5,3.358-7.5,7.5s3.358,7.5,7.5,7.5h496c4.142,0,7.5-3.358,7.5-7.5
		S507.642,364,503.5,364z M488,364H311v-65h24.5c4.142,0,7.5-3.358,7.5-7.5s-3.358-7.5-7.5-7.5H279v-84.365l209,104.5V364z M296,299
		v65h-81v-65H296z M247,251h17v33h-17V251z M215,163h16.5c4.142,0,7.5-3.358,7.5-7.5V147h9v8.5c0,4.142,3.358,7.5,7.5,7.5H296
		v28.365l-21.146-10.573c-2.326-1.163-5.087-1.038-7.297,0.328c-2.211,1.366-3.557,3.78-3.557,6.38V236h-17v-48.5
		c0-2.6-1.346-5.014-3.557-6.38c-2.211-1.366-4.971-1.49-7.297-0.328L215,191.365V163z M23,304.135l209-104.5V284h-56.5
		c-4.142,0-7.5,3.358-7.5,7.5s3.358,7.5,7.5,7.5H200v65h-97v-48.5c0-4.142-3.358-7.5-7.5-7.5h-48c-4.142,0-7.5,3.358-7.5,7.5V364H23
		V304.135z M88,364H55v-41h33V364z"/>
	<path d="M159.5,347h24c4.142,0,7.5-3.358,7.5-7.5v-24c0-4.142-3.358-7.5-7.5-7.5h-24c-4.142,0-7.5,3.358-7.5,7.5v24
		C152,343.642,155.358,347,159.5,347z M167,323h9v9h-9V323z"/>
	<path d="M375.5,347h96c4.142,0,7.5-3.358,7.5-7.5v-24c0-4.142-3.358-7.5-7.5-7.5h-96c-4.142,0-7.5,3.358-7.5,7.5v24
		C368,343.642,371.358,347,375.5,347z M416,332h-9v-9h9V332z M431,323h9v9h-9V323z M464,332h-9v-9h9V332z M383,323h9v9h-9V323z"/>
</g>
<g>
</g>
<g>
</g>
<g>
</g>
<g>
</g>
<g>
</g>
<g>
</g>
<g>
</g>
<g>
</g>
<g>
</g>
<g>
</g>
<g>
</g>
<g>
</g>
<g>
</g>
<g>
</g>
<g>
</g>
</svg>
