<?xml version="1.0" encoding="iso-8859-1"?>
<!-- Generator: Adobe Illustrator 19.0.0, SVG Export Plug-In . SVG Version: 6.00 Build 0)  -->
<svg version="1.1" id="Capa_1" xmlns="http://www.w3.org/2000/svg" xmlns:xlink="http://www.w3.org/1999/xlink" x="0px" y="0px"
	 viewBox="0 0 511 511" style="enable-background:new 0 0 511 511;" xml:space="preserve">
<path d="M426.275,322.707c0.027-0.056,0.053-0.112,0.078-0.168c0.039-0.087,0.075-0.175,0.11-0.264
	c0.033-0.082,0.064-0.164,0.093-0.246c0.023-0.065,0.047-0.13,0.068-0.195c0.026-0.079,0.049-0.159,0.073-0.239
	c0.026-0.087,0.05-0.175,0.072-0.264c0.019-0.075,0.037-0.15,0.054-0.226c0.016-0.071,0.029-0.144,0.043-0.216
	c0.017-0.091,0.033-0.181,0.047-0.272c0.013-0.085,0.024-0.171,0.034-0.256c0.008-0.068,0.014-0.137,0.02-0.206
	c0.008-0.088,0.015-0.176,0.019-0.265c0.005-0.094,0.007-0.188,0.008-0.282c0-0.036,0.005-0.071,0.005-0.107
	c0-0.039-0.005-0.076-0.006-0.114c-0.001-0.077-0.002-0.154-0.006-0.231c-0.004-0.093-0.012-0.186-0.02-0.278
	c-0.008-0.094-0.017-0.187-0.028-0.279c-0.005-0.037-0.004-0.074-0.009-0.111l-24-176c-0.007-0.055-0.022-0.106-0.03-0.16
	c-0.014-0.086-0.024-0.171-0.041-0.256c-0.015-0.077-0.033-0.152-0.05-0.228c-0.023-0.101-0.05-0.2-0.076-0.299
	c-0.014-0.053-0.023-0.106-0.038-0.16l-0.026-0.087c-0.004-0.014-0.008-0.027-0.012-0.041l-37.212-126.52
	C368.643,13.878,371,10.968,371,7.5c0-4.142-3.358-7.5-7.5-7.5h-7.87c-0.011,0-0.022,0-0.033,0H139.5c-4.142,0-7.5,3.358-7.5,7.5
	s3.358,7.5,7.5,7.5h0.046l-7.497,127.443L92.187,317.838c-0.004,0.019-0.006,0.038-0.01,0.056c-0.032,0.147-0.055,0.297-0.078,0.447
	c-0.017,0.107-0.037,0.215-0.049,0.322c-0.012,0.108-0.016,0.219-0.024,0.328c-0.01,0.151-0.021,0.302-0.023,0.451
	c0,0.02-0.003,0.038-0.003,0.057V496h-0.5c-4.142,0-7.5,3.358-7.5,7.5s3.358,7.5,7.5,7.5h272c4.142,0,7.5-3.358,7.5-7.5
	s-3.358-7.5-7.5-7.5H347v-38.458l78.964-134.239c0.018-0.031,0.031-0.063,0.049-0.093c0.053-0.092,0.103-0.185,0.152-0.28
	C426.203,322.856,426.24,322.782,426.275,322.707z M335.211,448h-31.892l56.941-121h46.128L335.211,448z M145.487,151h33.421
	l-21.955,161h-48.058L145.487,151z M236,15v121h-40.546l7.118-121H236z M276.428,15l7.118,121H251V15H276.428z M317.208,15
	l21.353,121h-39.989l-7.118-121H317.208z M349.888,15l35.588,121h-31.684L332.439,15H349.888z M286.741,448H254.1l42.706-121h46.876
	L286.741,448z M194.047,151h41.241l-14.636,161h-48.559L194.047,151z M347.651,312H299V151h41.333L347.651,312z M284,312h-48.287
	l14.636-161H284V312z M170.169,327h47.861L189.56,448h-33.626L170.169,327z M233.44,327H280.9l-42.706,121H204.97L233.44,327z
	 M362.667,312l-7.318-161h33.605l21.955,161H362.667z M107,327h48.066l-14.235,121H107V327z M155,463h33v33h-33V463z M203,463h33v33
	h-33V463z M251,463h33v33h-33V463z M187.546,15l-7.118,121h-32.974l7.118-121H187.546z M107,463h33v33h-33V463z M299,496v-33h33v33
	H299z"/>
<g>
</g>
<g>
</g>
<g>
</g>
<g>
</g>
<g>
</g>
<g>
</g>
<g>
</g>
<g>
</g>
<g>
</g>
<g>
</g>
<g>
</g>
<g>
</g>
<g>
</g>
<g>
</g>
<g>
</g>
</svg>
