<?xml version="1.0" encoding="iso-8859-1"?>
<!-- Generator: Adobe Illustrator 19.0.0, SVG Export Plug-In . SVG Version: 6.00 Build 0)  -->
<svg version="1.1" id="Capa_1" xmlns="http://www.w3.org/2000/svg" xmlns:xlink="http://www.w3.org/1999/xlink" x="0px" y="0px"
	 viewBox="0 0 511 511" style="enable-background:new 0 0 511 511;" xml:space="preserve">
<path d="M503.5,352H503V199.5c0-4.142-3.358-7.5-7.5-7.5s-7.5,3.358-7.5,7.5v8.5h-97v-40.5c0-4.142-3.358-7.5-7.5-7.5H335v-8.5
	c0-4.142-3.358-7.5-7.5-7.5h-32c-4.142,0-7.5,3.358-7.5,7.5V168h-24.5c-4.142,0-7.5,3.358-7.5,7.5V208h-25v-24.5
	c0-4.142-3.358-7.5-7.5-7.5s-7.5,3.358-7.5,7.5V208h-17v-48.5c0-4.142-3.358-7.5-7.5-7.5h-32c-4.142,0-7.5,3.358-7.5,7.5V208h-25
	v-24.5c0-4.142-3.358-7.5-7.5-7.5h-32c-4.142,0-7.5,3.358-7.5,7.5V208H23v-8.5c0-4.142-3.358-7.5-7.5-7.5S8,195.358,8,199.5V352H7.5
	c-4.142,0-7.5,3.358-7.5,7.5s3.358,7.5,7.5,7.5h496c4.142,0,7.5-3.358,7.5-7.5S507.642,352,503.5,352z M104,247v105h-9V247H104z
	 M119,247h41v105h-41V247z M175,247h9v105h-9V247z M199,247h33v105h-33V247z M296,247v25h-49v-25H296z M247,287h17v65h-17V287z
	 M279,287h17v65h-17V287z M311,247h25v105h-25V247z M351,247h73v105h-73V247z M488,247v25h-49v-25H488z M439,287h17v65h-17V287z
	 M471,287h17v65h-17V287z M376,175v33h-41v-33H376z M303,159h17v49h-17V159z M271,183h17v25h-17V183z M167,167h17v41h-17V167z
	 M95,191h17v17H95V191z M488,223v9H191.519c-0.006,0-0.013-0.001-0.019-0.001S191.487,232,191.481,232h-23.961
	c-0.006,0-0.013-0.001-0.019-0.001S167.487,232,167.481,232h-55.961c-0.006,0-0.013-0.001-0.019-0.001S111.487,232,111.481,232
	H87.519c-0.006,0-0.013-0.001-0.019-0.001S87.487,232,87.481,232H23v-9H488z M23,247h57v105H23V247z"/>
<g>
</g>
<g>
</g>
<g>
</g>
<g>
</g>
<g>
</g>
<g>
</g>
<g>
</g>
<g>
</g>
<g>
</g>
<g>
</g>
<g>
</g>
<g>
</g>
<g>
</g>
<g>
</g>
<g>
</g>
</svg>
