<?xml version="1.0" encoding="iso-8859-1"?>
<!-- Generator: Adobe Illustrator 19.0.0, SVG Export Plug-In . SVG Version: 6.00 Build 0)  -->
<svg version="1.1" id="Capa_1" xmlns="http://www.w3.org/2000/svg" xmlns:xlink="http://www.w3.org/1999/xlink" x="0px" y="0px"
	 viewBox="0 0 511 511" style="enable-background:new 0 0 511 511;" xml:space="preserve">
<path d="M503.5,324H503V179.5c0-4.142-3.358-7.5-7.5-7.5h-376c-4.142,0-7.5,3.358-7.5,7.5v56.516L8.076,228.022
	c-4.13-0.32-7.736,2.772-8.053,6.903c-0.317,4.13,2.773,7.735,6.903,8.053L56,246.753V324H7.5c-4.142,0-7.5,3.358-7.5,7.5
	s3.358,7.5,7.5,7.5h496c4.142,0,7.5-3.358,7.5-7.5S507.643,324,503.5,324z M127,211h249v9H127V211z M127,235h256.5
	c4.142,0,7.5-3.358,7.5-7.5v-24c0-4.142-3.358-7.5-7.5-7.5H127v-9h361v137h-50.316c-2.057-5.473-6.142-8.901-9.381-11.601
	c-4.007-3.341-5.303-4.666-5.303-7.58c0-2.914,1.295-4.239,5.303-7.58c4.515-3.764,10.697-8.919,10.697-19.101
	c0-10.175-6.186-15.323-10.702-19.083c-0.023-0.019-0.043-0.036-0.066-0.055h3.267c4.142,0,7.5-3.358,7.5-7.5s-3.358-7.5-7.5-7.5
	H423v-24.5c0-4.142-3.358-7.5-7.5-7.5s-7.5,3.358-7.5,7.5V244h-8.5c-4.142,0-7.5,3.358-7.5,7.5s3.358,7.5,7.5,7.5h9.819
	c2.059,5.465,6.144,8.887,9.383,11.583c4.004,3.333,5.298,4.654,5.298,7.555c0,2.914-1.295,4.239-5.303,7.58
	c-4.515,3.764-10.697,8.919-10.697,19.101c0,10.182,6.183,15.337,10.697,19.101c0.033,0.028,0.063,0.053,0.095,0.08H327v-17h56.5
	c4.142,0,7.5-3.358,7.5-7.5v-32c0-4.142-3.358-7.5-7.5-7.5H327v-0.5c0-0.03-0.004-0.06-0.004-0.09
	c-0.002-0.143-0.012-0.284-0.021-0.426c-0.008-0.11-0.013-0.221-0.025-0.33c-0.016-0.14-0.04-0.277-0.063-0.415
	c-0.019-0.109-0.035-0.219-0.058-0.327c-0.028-0.128-0.063-0.254-0.098-0.38c-0.031-0.113-0.059-0.227-0.095-0.338
	c-0.037-0.115-0.082-0.227-0.124-0.34c-0.044-0.117-0.086-0.235-0.136-0.349c-0.045-0.103-0.096-0.202-0.146-0.303
	c-0.058-0.117-0.114-0.235-0.177-0.349c-0.053-0.095-0.113-0.187-0.17-0.28c-0.069-0.112-0.136-0.224-0.211-0.332
	c-0.063-0.092-0.133-0.179-0.2-0.268c-0.077-0.102-0.152-0.204-0.234-0.302c-0.076-0.09-0.158-0.175-0.238-0.261
	c-0.082-0.089-0.162-0.179-0.249-0.263c-0.088-0.087-0.183-0.168-0.275-0.25c-0.086-0.076-0.17-0.154-0.259-0.227
	c-0.099-0.081-0.204-0.155-0.308-0.23c-0.091-0.066-0.18-0.134-0.274-0.197c-0.105-0.07-0.216-0.133-0.325-0.198
	c-0.1-0.059-0.198-0.12-0.3-0.174c-0.108-0.057-0.221-0.108-0.332-0.16c-0.11-0.052-0.219-0.105-0.333-0.152
	c-0.107-0.044-0.218-0.081-0.328-0.12c-0.124-0.044-0.247-0.089-0.373-0.127c-0.105-0.031-0.213-0.055-0.319-0.082
	c-0.136-0.034-0.272-0.069-0.411-0.095c-0.106-0.02-0.215-0.033-0.323-0.049c-0.142-0.021-0.283-0.042-0.428-0.055
	c-0.03-0.003-0.058-0.009-0.088-0.011L127,237.171V235z M127,275h73v9h-73V275z M200,260h-73v-7.786l73,5.615V260z M127,299h73v25
	h-73V299z M215,258.984l97,7.461V324h-97V258.984z M327,275h49v17h-49V275z M71,247.907l41,3.154V324H71V247.907z"/>
<g>
</g>
<g>
</g>
<g>
</g>
<g>
</g>
<g>
</g>
<g>
</g>
<g>
</g>
<g>
</g>
<g>
</g>
<g>
</g>
<g>
</g>
<g>
</g>
<g>
</g>
<g>
</g>
<g>
</g>
</svg>
